<svg width="600" height="600" viewBox="0 0 600 600" fill="none" xmlns="http://www.w3.org/2000/svg">
  <!-- Hero figure -->
  <path d="M300 150 Q 340 160 370 200 Q 400 240 410 300 Q 420 360 400 410 L 360 480 L 310 500 L 290 500 L 240 480 L 200 410 Q 180 360 190 300 Q 200 240 230 200 Q 260 160 300 150" fill="#281946"/>
  
  <!-- Head -->
  <circle cx="300" cy="120" r="40" fill="#281946"/>
  
  <!-- Cape flowing -->
  <path d="M350 180 Q 410 200 450 250 Q 490 300 510 400 Q 520 450 500 500 L 450 480 Q 470 440 460 380 Q 450 320 430 280 Q 410 240 370 210 L 350 180" fill="#627CFF"/>
  <path d="M250 180 Q 190 200 150 250 Q 110 300 90 400 Q 80 450 100 500 L 150 480 Q 130 440 140 380 Q 150 320 170 280 Q 190 240 230 210 L 250 180" fill="#627CFF"/>
  
  <!-- Arms -->
  <path d="M320 250 Q 330 230 350 220 L 390 260 Q 430 310 460 380 L 430 400 Q 410 360 370 320 L 320 250" fill="#281946"/>
  <path d="M280 250 Q 270 230 250 220 L 210 260 Q 170 310 140 380 L 170 400 Q 190 360 230 320 L 280 250" fill="#281946"/>
  
  <!-- Decorative dots -->
  <circle cx="300" cy="60" r="5" fill="#627CFF"/>
  <circle cx="350" cy="70" r="3" fill="#627CFF"/>
  <circle cx="250" cy="70" r="3" fill="#627CFF"/>
  <circle cx="400" cy="100" r="4" fill="#627CFF"/>
  <circle cx="200" cy="100" r="4" fill="#627CFF"/>
  <circle cx="450" cy="150" r="3" fill="#627CFF"/>
  <circle cx="150" cy="150" r="3" fill="#627CFF"/>
  <circle cx="500" cy="220" r="5" fill="#627CFF"/>
  <circle cx="100" cy="220" r="5" fill="#627CFF"/>
</svg>
