<svg width="220" height="50" viewBox="0 0 220 50" fill="none" xmlns="http://www.w3.org/2000/svg">
  <!-- i -->
  <circle cx="20" cy="15" r="3" fill="#281946"/>
  <circle cx="20" cy="25" r="3" fill="#281946"/>
  <circle cx="20" cy="35" r="3" fill="#281946"/>
  
  <!-- T -->
  <circle cx="35" cy="15" r="3" fill="#281946"/>
  <circle cx="45" cy="15" r="3" fill="#281946"/>
  <circle cx="55" cy="15" r="3" fill="#281946"/>
  <circle cx="45" cy="25" r="3" fill="#281946"/>
  <circle cx="45" cy="35" r="3" fill="#281946"/>
  
  <!-- 1 -->
  <circle cx="70" cy="15" r="3" fill="#281946"/>
  <circle cx="70" cy="25" r="3" fill="#281946"/>
  <circle cx="70" cy="35" r="3" fill="#281946"/>
  
  <!-- D -->
  <circle cx="85" cy="15" r="3" fill="#281946"/>
  <circle cx="95" cy="15" r="3" fill="#281946"/>
  <circle cx="85" cy="25" r="3" fill="#281946"/>
  <circle cx="105" cy="20" r="3" fill="#281946"/>
  <circle cx="105" cy="30" r="3" fill="#281946"/>
  <circle cx="85" cy="35" r="3" fill="#281946"/>
  <circle cx="95" cy="35" r="3" fill="#281946"/>
  
  <!-- x -->
  <circle cx="120" cy="15" r="3" fill="#281946"/>
  <circle cx="130" cy="35" r="3" fill="#281946"/>
  <circle cx="125" cy="25" r="3" fill="#281946"/>
  <circle cx="120" cy="35" r="3" fill="#281946"/>
  <circle cx="130" cy="15" r="3" fill="#281946"/>
  
  <!-- p -->
  <circle cx="145" cy="15" r="3" fill="#281946"/>
  <circle cx="145" cy="25" r="3" fill="#281946"/>
  <circle cx="145" cy="35" r="3" fill="#281946"/>
  <circle cx="155" cy="20" r="3" fill="#281946"/>
  <circle cx="155" cy="30" r="3" fill="#281946"/>
  
  <!-- e -->
  <circle cx="170" cy="15" r="3" fill="#281946"/>
  <circle cx="180" cy="15" r="3" fill="#281946"/>
  <circle cx="170" cy="25" r="3" fill="#281946"/>
  <circle cx="180" cy="25" r="3" fill="#281946"/>
  <circle cx="170" cy="35" r="3" fill="#281946"/>
  <circle cx="180" cy="35" r="3" fill="#281946"/>
  
  <!-- r -->
  <circle cx="195" cy="15" r="3" fill="#281946"/>
  <circle cx="195" cy="25" r="3" fill="#281946"/>
  <circle cx="195" cy="35" r="3" fill="#281946"/>
  <circle cx="205" cy="20" r="3" fill="#281946"/>
  
  <!-- t -->
  <circle cx="215" cy="15" r="3" fill="#281946"/>
  <circle cx="215" cy="25" r="3" fill="#281946"/>
  <circle cx="215" cy="35" r="3" fill="#281946"/>
  
  <!-- Simple connecting lines -->
  <path d="M35 15 L 55 15" stroke="#627CFF" stroke-width="1.5"/>
  <path d="M45 15 L 45 35" stroke="#627CFF" stroke-width="1.5"/>
  <path d="M85 15 Q 105 15 105 25 Q 105 35 85 35" stroke="#627CFF" stroke-width="1.5"/>
  <path d="M120 15 L 130 35" stroke="#627CFF" stroke-width="1.5"/>
  <path d="M130 15 L 120 35" stroke="#627CFF" stroke-width="1.5"/>
  <path d="M145 25 Q 155 10 155 20 Q 155 30 145 30" stroke="#627CFF" stroke-width="1.5"/>
  <path d="M170 15 L 180 15 L 180 25 L 170 25 L 170 35 L 180 35" stroke="#627CFF" stroke-width="1.5"/>
  <path d="M195 15 Q 205 10 205 20" stroke="#627CFF" stroke-width="1.5"/>
  
  <!-- Medical cross symbol -->
  <circle cx="15" cy="45" r="5" fill="#627CFF" fill-opacity="0.2"/>
  <path d="M13 45 L 17 45 M15 43 L 15 47" stroke="#627CFF" stroke-width="1"/>
</svg>
